<svg width="170" height="41" viewBox="0 0 170 41" fill="none" xmlns="http://www.w3.org/2000/svg">
<path d="M156.056 28.4408V11.6731H159.132V28.4408H156.056ZM166.422 28.4408V11.6731H169.476V28.4408H166.422ZM158.575 21.0183V18.2684H166.979V21.0183H158.575Z" fill="white"/>
<path d="M142.386 28.4407V26.9428C142.386 26.0784 142.498 25.3108 142.721 24.6401C142.944 23.9544 143.271 23.3433 143.702 22.8068C144.147 22.2553 144.69 21.756 145.329 21.3089C145.968 20.8468 146.704 20.4146 147.536 20.0122C148.131 19.7141 148.703 19.4011 149.253 19.0732C149.803 18.7453 150.256 18.3652 150.613 17.933C150.969 17.4858 151.148 16.9343 151.148 16.2785C151.148 15.5929 150.895 15.0265 150.39 14.5794C149.899 14.1323 149.26 13.9087 148.472 13.9087C147.61 13.9087 146.882 14.2217 146.288 14.8477C145.693 15.4588 145.366 16.3456 145.307 17.5082H142.431C142.431 16.3009 142.661 15.2352 143.122 14.3111C143.598 13.3721 144.281 12.6418 145.173 12.1201C146.08 11.5985 147.179 11.3376 148.472 11.3376C149.617 11.3376 150.613 11.5463 151.46 11.9636C152.322 12.3661 152.991 12.9399 153.466 13.6851C153.942 14.4304 154.179 15.3023 154.179 16.3009C154.179 17.061 154.046 17.7317 153.778 18.313C153.511 18.8943 153.147 19.4234 152.686 19.9004C152.225 20.3624 151.69 20.7872 151.081 21.1747C150.486 21.5622 149.84 21.9423 149.141 22.3149C148.68 22.5534 148.227 22.8142 147.781 23.0974C147.35 23.3657 146.964 23.6712 146.622 24.0141C146.295 24.342 146.05 24.7071 145.886 25.1095C145.738 25.512 145.715 25.9666 145.819 26.4733L144.816 25.8473H153.845V28.4407H142.386Z" fill="white"/>
<path d="M132.853 28.5079V16.5692H135.416L135.595 18.7826C135.832 18.0373 136.226 17.4263 136.776 16.9493C137.326 16.4724 138.01 16.2339 138.827 16.2339C138.946 16.2339 139.065 16.2413 139.184 16.2562C139.318 16.2562 139.437 16.2711 139.541 16.301V19.0285C139.422 18.9987 139.288 18.9763 139.139 18.9614C139.006 18.9465 138.879 18.9391 138.76 18.9391C138.166 18.9391 137.631 19.0583 137.155 19.2968C136.694 19.5353 136.33 19.8855 136.063 20.3476C135.81 20.8096 135.684 21.3685 135.684 22.0243V28.5079H132.853Z" fill="white"/>
<path d="M126.096 28.7762C124.922 28.7762 123.896 28.5228 123.019 28.016C122.157 27.5093 121.488 26.7864 121.013 25.8474C120.537 24.9084 120.299 23.8055 120.299 22.5386C120.299 21.2717 120.537 20.1687 121.013 19.2297C121.488 18.2758 122.157 17.538 123.019 17.0164C123.881 16.4947 124.884 16.2339 126.029 16.2339C127.247 16.2339 128.273 16.5245 129.105 17.1058C129.952 17.6871 130.584 18.5143 131 19.5874C131.416 20.6457 131.587 21.9126 131.513 23.3881H122.439V21.3536H128.726C128.682 20.3699 128.399 19.6396 127.879 19.1627C127.359 18.6857 126.75 18.4472 126.051 18.4472C125.65 18.4472 125.293 18.5218 124.981 18.6708C124.669 18.8049 124.394 18.9912 124.156 19.2297C123.918 19.4533 123.718 19.7141 123.554 20.0122C123.406 20.3103 123.294 20.6308 123.22 20.9736C123.145 21.3164 123.108 21.6592 123.108 22.002V23.0304C123.108 23.7309 123.235 24.3569 123.487 24.9084C123.755 25.445 124.119 25.8623 124.58 26.1604C125.04 26.4436 125.568 26.5852 126.163 26.5852C126.608 26.5852 127.002 26.5032 127.344 26.3392C127.686 26.1753 127.976 25.9443 128.214 25.6462C128.466 25.3481 128.645 25.0127 128.749 24.6401H131.446C131.268 25.4748 130.933 26.2051 130.443 26.8311C129.967 27.4422 129.358 27.9191 128.615 28.2619C127.887 28.6048 127.047 28.7762 126.096 28.7762Z" fill="white"/>
<path d="M108.628 28.4408V21.2866C108.628 20.4966 108.45 19.8706 108.093 19.4086C107.737 18.9316 107.194 18.6932 106.466 18.6932C105.976 18.6932 105.545 18.8273 105.173 19.0956C104.816 19.3639 104.534 19.7365 104.326 20.2134C104.133 20.6904 104.036 21.2642 104.036 21.9349L103.256 19.6769C103.568 18.5739 104.066 17.7244 104.749 17.1282C105.448 16.532 106.258 16.2339 107.179 16.2339C108.041 16.2339 108.792 16.4276 109.431 16.8152C110.07 17.1878 110.568 17.702 110.925 18.3578C111.281 18.9987 111.46 19.729 111.46 20.5488V28.4408H108.628ZM101.227 28.4408V16.5916H103.746L104.036 19.498V28.4408H101.227ZM116.119 28.4408V21.2866C116.119 20.4966 115.933 19.8706 115.562 19.4086C115.205 18.9316 114.663 18.6932 113.934 18.6932C113.444 18.6932 113.013 18.8273 112.641 19.0956C112.27 19.349 111.98 19.7141 111.772 20.1911C111.564 20.6531 111.46 21.2195 111.46 21.8902L110.724 19.6992C111.036 18.5665 111.534 17.7094 112.218 17.1282C112.916 16.532 113.726 16.2339 114.648 16.2339C115.525 16.2339 116.283 16.4276 116.922 16.8152C117.561 17.1878 118.051 17.7094 118.393 18.3802C118.75 19.0509 118.928 19.8334 118.928 20.7276V28.4408H116.119Z" fill="white"/>
<path d="M94.0155 28.7762C92.886 28.7762 91.8754 28.5153 90.9836 27.9937C90.1067 27.4571 89.4156 26.7268 88.9103 25.8027C88.405 24.8637 88.1523 23.7831 88.1523 22.5609C88.1523 21.3387 88.3976 20.2507 88.888 19.2968C89.3933 18.3429 90.0919 17.5977 90.9836 17.0611C91.8754 16.5096 92.886 16.2339 94.0155 16.2339C95.1599 16.2339 96.1706 16.5096 97.0475 17.0611C97.9243 17.5977 98.608 18.3429 99.0985 19.2968C99.6038 20.2507 99.8564 21.3387 99.8564 22.5609C99.8564 23.7831 99.6038 24.8637 99.0985 25.8027C98.608 26.7268 97.9243 27.4571 97.0475 27.9937C96.1706 28.5153 95.1599 28.7762 94.0155 28.7762ZM94.0155 26.3169C94.61 26.3169 95.1228 26.1604 95.5538 25.8474C95.9848 25.5195 96.3266 25.0723 96.5793 24.506C96.8468 23.9396 96.9806 23.2912 96.9806 22.5609C96.9806 21.8008 96.8542 21.1375 96.6016 20.5711C96.3489 19.9899 95.9997 19.5353 95.5538 19.2074C95.1228 18.8795 94.61 18.7155 94.0155 18.7155C93.4359 18.7155 92.9157 18.8795 92.455 19.2074C92.0091 19.5204 91.6599 19.9675 91.4072 20.5488C91.1545 21.1301 91.0282 21.8008 91.0282 22.5609C91.0282 23.3061 91.1545 23.962 91.4072 24.5283C91.6599 25.0947 92.0091 25.5344 92.455 25.8474C92.9157 26.1604 93.4359 26.3169 94.0155 26.3169Z" fill="white"/>
<path d="M85.4669 28.4409C84.8129 28.4409 84.2482 28.3142 83.7726 28.0608C83.3118 27.7925 82.9626 27.4124 82.7248 26.9206C82.487 26.4138 82.3681 25.8027 82.3681 25.0873V12.8357H85.1994V24.6402C85.1994 24.9532 85.2365 25.2066 85.3108 25.4003C85.3851 25.5941 85.4966 25.7357 85.6452 25.8251C85.8087 25.9145 86.0094 25.9592 86.2472 25.9592H87.986V28.4409H85.4669ZM80.4062 18.8721V16.5917H87.6516V18.8721H80.4062Z" fill="white"/>
<path d="M75.4217 28.7762C73.9503 28.7762 72.7613 28.411 71.8547 27.6807C70.963 26.9354 70.5171 25.907 70.5171 24.5954H73.014C73.118 25.281 73.3707 25.8027 73.7719 26.1604C74.1881 26.5181 74.738 26.697 75.4217 26.697C75.9864 26.697 76.4546 26.5703 76.8262 26.3169C77.1977 26.0486 77.3835 25.676 77.3835 25.199C77.3835 24.8413 77.2497 24.5805 76.9822 24.4165C76.7296 24.2377 76.2465 24.0514 75.5331 23.8576C75.0873 23.7384 74.686 23.6415 74.3293 23.567C73.9726 23.4775 73.5787 23.3583 73.1477 23.2093C72.6721 23.0453 72.2411 22.8516 71.8547 22.628C71.4683 22.3895 71.1562 22.0691 70.9184 21.6666C70.6954 21.2642 70.584 20.7425 70.584 20.1016C70.584 19.416 70.7177 18.8273 70.9853 18.3354C71.2528 17.8436 71.6095 17.4486 72.0553 17.1505C72.5161 16.8375 73.0214 16.6065 73.5713 16.4575C74.1212 16.3084 74.6785 16.2339 75.2433 16.2339C76.1351 16.2339 76.9228 16.3978 77.6064 16.7257C78.305 17.0387 78.8549 17.4859 79.2561 18.0672C79.6574 18.6335 79.8581 19.3042 79.8581 20.0793H77.2051C77.2051 19.5278 76.9896 19.0956 76.5586 18.7826C76.1425 18.4547 75.652 18.2907 75.0873 18.2907C74.6117 18.2907 74.1807 18.4025 73.7942 18.6261C73.4078 18.8497 73.2146 19.1925 73.2146 19.6545C73.2146 19.9824 73.3409 20.2432 73.5936 20.437C73.8463 20.6308 74.2921 20.8245 74.9312 21.0183C75.3028 21.1226 75.7338 21.2344 76.2242 21.3536C76.7296 21.4729 77.1457 21.5847 77.4727 21.689C78.1118 21.8828 78.6171 22.1361 78.9886 22.4491C79.375 22.7472 79.6574 23.1124 79.8358 23.5446C80.0141 23.962 80.0959 24.4538 80.081 25.0202C80.0661 25.8847 79.8432 26.5926 79.4122 27.1441C78.9961 27.6956 78.4387 28.1054 77.7402 28.3737C77.0417 28.642 76.2688 28.7762 75.4217 28.7762Z" fill="white"/>
<path d="M64.2852 28.7759C63.2894 28.7759 62.4051 28.5597 61.6323 28.1275C60.8595 27.6953 60.2501 27.0916 59.8042 26.3166C59.3732 25.5416 59.1577 24.6398 59.1577 23.6114V16.5913H61.989V23.7008C61.989 24.4908 62.2045 25.1242 62.6355 25.6012C63.0665 26.0781 63.6164 26.3166 64.2852 26.3166C64.9689 26.3166 65.5262 26.0781 65.9572 25.6012C66.4031 25.1242 66.626 24.4908 66.626 23.7008V16.5913H69.435V23.6114C69.435 24.6398 69.2121 25.5416 68.7662 26.3166C68.3352 27.0916 67.7333 27.6953 66.9604 28.1275C66.1876 28.5597 65.2959 28.7759 64.2852 28.7759Z" fill="white"/>
<path d="M51.0443 28.7761C49.8702 28.7761 48.8075 28.5749 47.8563 28.1725C46.9051 27.7551 46.0877 27.1664 45.404 26.4063C44.7203 25.6312 44.1927 24.7071 43.8212 23.634C43.4645 22.5609 43.2861 21.3685 43.2861 20.0569C43.2861 18.7304 43.4645 17.538 43.8212 16.4798C44.1927 15.4066 44.7129 14.49 45.3817 13.7298C46.0654 12.9548 46.8754 12.3661 47.8117 11.9636C48.748 11.5463 49.7958 11.3376 50.9551 11.3376C52.2927 11.3376 53.4445 11.591 54.4106 12.0978C55.3915 12.5896 56.1644 13.2902 56.7291 14.1993C57.3088 15.0936 57.6506 16.1369 57.7546 17.3293H54.6781C54.5592 16.6735 54.3363 16.1071 54.0093 15.6302C53.6972 15.1383 53.2885 14.7583 52.7832 14.49C52.2779 14.2068 51.6834 14.0652 50.9997 14.0652C50.0782 14.0652 49.2757 14.3186 48.592 14.8253C47.9083 15.3172 47.3807 16.0177 47.0092 16.9269C46.6376 17.8212 46.4518 18.8645 46.4518 20.0569C46.4518 21.2492 46.6376 22.3 47.0092 23.2092C47.3807 24.1035 47.9083 24.804 48.592 25.3108C49.2905 25.8175 50.1154 26.0709 51.0666 26.0709C51.8989 26.0709 52.5751 25.8995 53.0953 25.5567C53.6303 25.2139 54.039 24.7667 54.3214 24.2153C54.6038 23.6638 54.7896 23.0602 54.8788 22.4044H57.933C57.8438 23.7309 57.502 24.8711 56.9075 25.825C56.3278 26.764 55.5401 27.4943 54.5444 28.016C53.5634 28.5227 52.3968 28.7761 51.0443 28.7761Z" fill="white"/>
<path d="M19.4336 25.0017C18.8007 25.1373 18.1399 25.0152 17.5968 24.6622C17.0537 24.3092 16.6726 23.7543 16.5374 23.1196C16.4186 22.5625 16.4974 21.9813 16.7602 21.4763C17.398 20.2502 19.1938 19.272 20.2183 18.3621L20.8969 17.5992C23.1497 15.0666 21.0945 11.083 17.7317 11.4641L6.86461 13.7776C6.28671 13.9013 5.68346 13.7897 5.18756 13.4674C4.69167 13.1452 4.34373 12.6386 4.22023 12.0591C4.09686 11.4796 4.20804 10.8748 4.52934 10.3775C4.85064 9.8803 5.35573 9.53142 5.93352 9.40762C12.9603 7.90254 19.9704 6.8393 27.009 5.70026C29.9146 5.23006 32.3597 7.92036 31.598 10.7713L28.9419 20.7123C28.55 22.1789 27.3716 23.3015 25.8909 23.6186L19.4336 25.0017Z" fill="white"/>
<path d="M13.1606 15.26C13.7936 15.1244 14.4543 15.2465 14.9974 15.5995C15.5406 15.9525 15.9217 16.5074 16.0569 17.1421C16.1756 17.6992 16.0968 18.2804 15.8341 18.7854C15.1962 20.0115 13.4005 20.9898 12.376 21.8997L12.0973 22.1279C9.20685 24.4951 11.1505 29.1833 14.8625 28.7976L25.7296 26.4842C26.3075 26.3605 26.9108 26.472 27.4067 26.7943C27.9026 27.1165 28.2505 27.6231 28.374 28.2026C28.4974 28.7821 28.3862 29.3869 28.0649 29.8842C27.7436 30.3814 27.2385 30.7303 26.6607 30.8541C19.5542 32.3763 12.5641 33.3952 5.47984 34.3621C2.62724 34.7515 0.299863 32.0967 1.04498 29.308L3.65238 19.5494C4.04423 18.0828 5.22268 16.9602 6.7033 16.6431L13.1606 15.26Z" fill="white"/>
</svg>
